<svg width="30" height="32" viewBox="0 0 30 32" fill="none" xmlns="http://www.w3.org/2000/svg">
<path d="M4.25781 10.9453C4.65104 10.9453 5.02344 10.9805 5.375 11.0508C5.72656 11.1185 6.03255 11.2148 6.29297 11.3398C6.55599 11.4648 6.76432 11.6146 6.91797 11.7891C7.07161 11.9609 7.14844 12.151 7.14844 12.3594V13.0469H6.11719V12.6641C6.11719 12.5521 6.07422 12.4453 5.98828 12.3438C5.90234 12.2396 5.77865 12.1497 5.61719 12.0742C5.45833 11.9961 5.26432 11.9349 5.03516 11.8906C4.80599 11.8438 4.54688 11.8203 4.25781 11.8203C3.97917 11.8203 3.72526 11.8424 3.49609 11.8867C3.26693 11.9284 3.07031 11.987 2.90625 12.0625C2.74219 12.138 2.61458 12.2279 2.52344 12.332C2.4349 12.4336 2.39062 12.5443 2.39062 12.6641V15.4219C2.39062 15.5365 2.4349 15.6445 2.52344 15.7461C2.61458 15.8477 2.74219 15.9362 2.90625 16.0117C3.07031 16.0846 3.26693 16.1432 3.49609 16.1875C3.72526 16.2292 3.97917 16.25 4.25781 16.25C4.54688 16.25 4.80599 16.2279 5.03516 16.1836C5.26432 16.1367 5.45833 16.0755 5.61719 16C5.77865 15.9245 5.90234 15.8372 5.98828 15.7383C6.07422 15.6367 6.11719 15.5312 6.11719 15.4219V15.0312H7.14844V15.7188C7.14844 15.8568 7.11328 15.9883 7.04297 16.1133C6.97266 16.2357 6.8737 16.349 6.74609 16.4531C6.62109 16.5573 6.47005 16.651 6.29297 16.7344C6.11849 16.8151 5.92318 16.8854 5.70703 16.9453C5.49349 17.0026 5.26432 17.0469 5.01953 17.0781C4.77474 17.1094 4.52083 17.125 4.25781 17.125C3.99479 17.125 3.74089 17.1094 3.49609 17.0781C3.2513 17.0469 3.02083 17.0026 2.80469 16.9453C2.59115 16.8854 2.39583 16.8151 2.21875 16.7344C2.04427 16.651 1.89323 16.5573 1.76562 16.4531C1.64062 16.349 1.54297 16.2357 1.47266 16.1133C1.40234 15.9883 1.36719 15.8568 1.36719 15.7188V12.3594C1.36719 12.2214 1.40234 12.0898 1.47266 11.9648C1.54297 11.8398 1.64062 11.7253 1.76562 11.6211C1.89323 11.5169 2.04427 11.4232 2.21875 11.3398C2.39583 11.2565 2.59115 11.1862 2.80469 11.1289C3.02083 11.069 3.2513 11.0234 3.49609 10.9922C3.74089 10.9609 3.99479 10.9453 4.25781 10.9453ZM11.2341 10.9531C11.4945 10.9531 11.7471 10.9688 11.9919 11C12.2367 11.0312 12.4658 11.0768 12.6794 11.1367C12.8929 11.194 13.0882 11.2643 13.2653 11.3477C13.4424 11.4284 13.5934 11.5208 13.7184 11.625C13.8434 11.7292 13.9411 11.8438 14.0114 11.9688C14.0817 12.0911 14.1169 12.2214 14.1169 12.3594V15.7109C14.1169 15.849 14.0817 15.9805 14.0114 16.1055C13.9411 16.2279 13.8434 16.3411 13.7184 16.4453C13.5934 16.5495 13.4424 16.6432 13.2653 16.7266C13.0882 16.8073 12.8929 16.8776 12.6794 16.9375C12.4658 16.9948 12.2367 17.0391 11.9919 17.0703C11.7471 17.1016 11.4945 17.1172 11.2341 17.1172C10.9736 17.1172 10.721 17.1016 10.4763 17.0703C10.2341 17.0391 10.0062 16.9948 9.79266 16.9375C9.58172 16.8776 9.38771 16.8073 9.21063 16.7266C9.03354 16.6432 8.8812 16.5495 8.75359 16.4453C8.62859 16.3411 8.53094 16.2279 8.46063 16.1055C8.39292 15.9805 8.35906 15.849 8.35906 15.7109V12.3594C8.35906 12.2214 8.39292 12.0911 8.46063 11.9688C8.53094 11.8438 8.62859 11.7292 8.75359 11.625C8.8812 11.5208 9.03354 11.4284 9.21063 11.3477C9.38771 11.2643 9.58172 11.194 9.79266 11.1367C10.0062 11.0768 10.2341 11.0312 10.4763 11C10.721 10.9688 10.9736 10.9531 11.2341 10.9531ZM13.0934 12.6562C13.0934 12.5443 13.0505 12.4388 12.9645 12.3398C12.8786 12.2383 12.7549 12.1497 12.5934 12.0742C12.4346 11.9961 12.2406 11.9349 12.0114 11.8906C11.7822 11.8438 11.5231 11.8203 11.2341 11.8203C10.9554 11.8203 10.7028 11.8424 10.4763 11.8867C10.2497 11.9284 10.0544 11.987 9.89031 12.0625C9.72885 12.138 9.60385 12.2266 9.51531 12.3281C9.42677 12.4297 9.3825 12.5391 9.3825 12.6562V15.4141C9.3825 15.5286 9.42677 15.6367 9.51531 15.7383C9.60385 15.8398 9.72885 15.9284 9.89031 16.0039C10.0544 16.0794 10.2497 16.1393 10.4763 16.1836C10.7028 16.2279 10.9554 16.25 11.2341 16.25C11.5231 16.25 11.7822 16.2279 12.0114 16.1836C12.2406 16.1367 12.4346 16.0742 12.5934 15.9961C12.7549 15.918 12.8786 15.8294 12.9645 15.7305C13.0505 15.6289 13.0934 15.5234 13.0934 15.4141V12.6562ZM17.9369 11.0469C18.3379 11.0469 18.7155 11.082 19.0697 11.1523C19.4239 11.2227 19.7338 11.3203 19.9994 11.4453C20.265 11.5703 20.4746 11.7214 20.6283 11.8984C20.7819 12.0729 20.8588 12.2656 20.8588 12.4766V15.5859C20.8588 15.7969 20.7819 15.9909 20.6283 16.168C20.4746 16.3424 20.265 16.4922 19.9994 16.6172C19.7338 16.7422 19.4239 16.8398 19.0697 16.9102C18.7155 16.9805 18.3379 17.0156 17.9369 17.0156C17.7129 17.0156 17.4838 17.0078 17.2494 16.9922C17.015 16.974 16.7871 16.9518 16.5658 16.9258C16.347 16.8971 16.1413 16.8646 15.9486 16.8281C15.7559 16.7917 15.5905 16.7526 15.4525 16.7109V11.3516C15.5905 11.3099 15.7559 11.2708 15.9486 11.2344C16.1413 11.1979 16.347 11.1667 16.5658 11.1406C16.7871 11.112 17.015 11.0898 17.2494 11.0742C17.4838 11.056 17.7129 11.0469 17.9369 11.0469ZM17.9525 11.9297C17.7155 11.9297 17.5098 11.9375 17.3353 11.9531C17.1608 11.9661 17.0111 11.9844 16.8861 12.0078C16.7611 12.0286 16.6569 12.0521 16.5736 12.0781C16.4929 12.1016 16.4265 12.1224 16.3744 12.1406V15.9219C16.4265 15.9427 16.4929 15.9648 16.5736 15.9883C16.6569 16.0117 16.7611 16.0352 16.8861 16.0586C17.0111 16.0794 17.1608 16.0977 17.3353 16.1133C17.5098 16.1263 17.7155 16.1328 17.9525 16.1328C18.2442 16.1328 18.5059 16.1094 18.7377 16.0625C18.972 16.0156 19.1686 15.9531 19.3275 15.875C19.489 15.7969 19.6127 15.707 19.6986 15.6055C19.7845 15.5013 19.8275 15.3932 19.8275 15.2812V12.7812C19.8275 12.6693 19.7845 12.5625 19.6986 12.4609C19.6127 12.3568 19.489 12.2656 19.3275 12.1875C19.1686 12.1094 18.972 12.0469 18.7377 12C18.5059 11.9531 18.2442 11.9297 17.9525 11.9297ZM24.9131 11.0547C25.3142 11.0547 25.7386 11.069 26.1866 11.0977C26.6371 11.1263 27.1058 11.1823 27.5928 11.2656V12.2578C27.3741 12.1953 27.1527 12.1445 26.9287 12.1055C26.7048 12.0638 26.4795 12.0312 26.253 12.0078C26.029 11.9844 25.8051 11.9674 25.5811 11.957C25.3571 11.9466 25.1345 11.9401 24.9131 11.9375C24.8064 11.9375 24.6879 11.9401 24.5577 11.9453C24.4301 11.9479 24.2933 11.9531 24.1475 11.9609C24.0043 11.9688 23.8532 11.9805 23.6944 11.9961C23.5355 12.0117 23.3741 12.0312 23.21 12.0547V13.4766H26.6241V14.4375H23.21V16.0078C23.4626 16.0443 23.7256 16.0716 23.9991 16.0898C24.2725 16.1081 24.5772 16.1172 24.9131 16.1172C25.3662 16.1172 25.8168 16.0951 26.2647 16.0508C26.7126 16.0065 27.1553 15.9219 27.5928 15.7969V16.7891C27.1058 16.8724 26.6384 16.9284 26.1905 16.957C25.7426 16.9857 25.322 17 24.9287 17C24.5277 17 24.1019 16.9857 23.6514 16.957C23.2035 16.9284 22.7334 16.8724 22.2412 16.7891V11.2656C22.7334 11.1823 23.2035 11.1263 23.6514 11.0977C24.0993 11.069 24.5199 11.0547 24.9131 11.0547Z" fill="#2D3049"/>
<path d="M3.65186 18.3474C3.58512 18.3474 3.52409 18.3539 3.46875 18.3669C3.41341 18.38 3.36458 18.4003 3.32227 18.428C3.28158 18.454 3.24984 18.4874 3.22705 18.5281C3.20426 18.5671 3.19287 18.6127 3.19287 18.6648V18.8162H3.82275V19.2263H3.19287V21.6335H2.55811V19.2263H2.1626V18.8162H2.55811V18.7332C2.55811 18.6176 2.58252 18.5102 2.63135 18.4109C2.68018 18.3116 2.75098 18.2262 2.84375 18.1545C2.93815 18.0813 3.0529 18.0243 3.18799 17.9836C3.32308 17.943 3.4777 17.9226 3.65186 17.9226V18.3474ZM8.55107 20.6375C8.51038 20.6016 8.45993 20.5667 8.39971 20.5325C8.33949 20.4983 8.26543 20.4682 8.17754 20.4421C8.08965 20.4145 7.98467 20.3925 7.8626 20.3762C7.74215 20.3583 7.60055 20.3494 7.43779 20.3494C7.29294 20.3494 7.1554 20.3526 7.0252 20.3591C6.89661 20.364 6.7835 20.3803 6.68584 20.408C6.58818 20.434 6.51087 20.4763 6.45391 20.5349C6.39694 20.5935 6.36846 20.6749 6.36846 20.7791V21.0916C6.51169 21.1143 6.66956 21.1331 6.84209 21.1477C7.01462 21.1624 7.20667 21.1697 7.41826 21.1697C7.58753 21.1697 7.76738 21.164 7.95781 21.1526C8.14987 21.1396 8.34762 21.1143 8.55107 21.0769V20.6375ZM7.45244 18.8503C7.53382 18.8503 7.63229 18.8544 7.74785 18.8625C7.86341 18.8707 7.98385 18.8853 8.10918 18.9065C8.23451 18.926 8.3582 18.9537 8.48027 18.9895C8.60397 19.0237 8.71465 19.0693 8.8123 19.1262C8.91159 19.1816 8.99134 19.2483 9.05156 19.3264C9.11178 19.4045 9.14189 19.4965 9.14189 19.6023V21.4919C9.00518 21.5196 8.85055 21.5432 8.67803 21.5627C8.52992 21.5806 8.35332 21.5969 8.14824 21.6116C7.94316 21.6262 7.71449 21.6335 7.46221 21.6335C7.21156 21.6335 6.94463 21.623 6.66143 21.6018C6.37985 21.5806 6.08525 21.544 5.77764 21.4919V20.613C5.77764 20.5186 5.79961 20.4364 5.84355 20.3665C5.88913 20.2948 5.95098 20.2338 6.0291 20.1833C6.10723 20.1329 6.19919 20.0914 6.30498 20.0588C6.41077 20.0263 6.52471 20.0002 6.64678 19.9807C6.76885 19.9612 6.8958 19.9482 7.02764 19.9417C7.15947 19.9335 7.29131 19.9294 7.42314 19.9294C7.62334 19.9294 7.79342 19.9425 7.9334 19.9685C8.075 19.9929 8.19219 20.0198 8.28496 20.0491C8.39238 20.0849 8.48109 20.1248 8.55107 20.1687V19.7732C8.55107 19.7065 8.5348 19.6495 8.50225 19.6023C8.46969 19.5535 8.42575 19.5128 8.37041 19.4802C8.31507 19.446 8.2516 19.4192 8.17998 19.3997C8.10837 19.3785 8.0335 19.3622 7.95537 19.3508C7.87725 19.3394 7.79749 19.3321 7.71611 19.3289C7.63636 19.3256 7.56149 19.324 7.4915 19.324C7.41826 19.324 7.34014 19.3264 7.25713 19.3313C7.17412 19.3346 7.09111 19.3419 7.00811 19.3533C6.92673 19.3647 6.84779 19.3809 6.77129 19.4021C6.69642 19.4216 6.62969 19.4485 6.57109 19.4827C6.5125 19.5168 6.4653 19.5583 6.42949 19.6072C6.39531 19.6544 6.37822 19.7113 6.37822 19.7781L5.77275 19.6218C5.77275 19.5128 5.79961 19.4184 5.85332 19.3386C5.90703 19.2572 5.97783 19.1881 6.06572 19.1311C6.15524 19.0741 6.25778 19.0278 6.37334 18.9919C6.4889 18.9545 6.60853 18.926 6.73223 18.9065C6.85755 18.8853 6.98206 18.8707 7.10576 18.8625C7.22946 18.8544 7.34502 18.8503 7.45244 18.8503ZM11.3165 19.6169C11.31 19.5649 11.2945 19.5209 11.2701 19.4851C11.2473 19.4493 11.2221 19.42 11.1944 19.3972C11.1635 19.3695 11.1293 19.3468 11.0919 19.3289L11.3653 18.8503C11.4256 18.8715 11.4858 18.9 11.546 18.9358C11.5965 18.9667 11.6493 19.0066 11.7047 19.0554C11.7617 19.1026 11.8113 19.1612 11.8536 19.2312C11.935 19.1791 12.018 19.1303 12.1026 19.0847C12.1889 19.0375 12.2784 18.9968 12.3712 18.9626C12.4656 18.9285 12.5641 18.9016 12.6666 18.8821C12.7708 18.8609 12.8823 18.8503 13.0011 18.8503C13.2517 18.8503 13.4666 18.8715 13.6456 18.9138C13.8263 18.9545 13.9736 19.0164 14.0875 19.0994C14.2031 19.1807 14.2877 19.2825 14.3414 19.4045C14.3951 19.5266 14.422 19.669 14.422 19.8318V21.6335H13.7823V19.9832C13.7823 19.892 13.7701 19.8139 13.7457 19.7488C13.7213 19.682 13.6879 19.6259 13.6456 19.5803C13.6049 19.5331 13.5569 19.4949 13.5016 19.4656C13.4462 19.4363 13.3884 19.4143 13.3282 19.3997C13.2696 19.3834 13.2094 19.3728 13.1476 19.3679C13.0857 19.3614 13.0271 19.3582 12.9718 19.3582C12.8676 19.3582 12.7683 19.3655 12.6739 19.3801C12.5795 19.3948 12.49 19.4151 12.4054 19.4412C12.3207 19.4656 12.241 19.4949 12.1661 19.5291C12.0912 19.5632 12.0213 19.599 11.9562 19.6365V21.6335H11.3165V19.6169ZM16.5966 19.6169C16.5901 19.5649 16.5746 19.5209 16.5502 19.4851C16.5274 19.4493 16.5022 19.42 16.4745 19.3972C16.4436 19.3695 16.4094 19.3468 16.372 19.3289L16.6454 18.8503C16.7056 18.8715 16.7659 18.9 16.8261 18.9358C16.8765 18.9667 16.9294 19.0066 16.9848 19.0554C17.0417 19.1026 17.0914 19.1612 17.1337 19.2312C17.2151 19.1791 17.2981 19.1303 17.3827 19.0847C17.469 19.0375 17.5585 18.9968 17.6513 18.9626C17.7457 18.9285 17.8441 18.9016 17.9467 18.8821C18.0508 18.8609 18.1623 18.8503 18.2812 18.8503C18.5318 18.8503 18.7466 18.8715 18.9257 18.9138C19.1063 18.9545 19.2536 19.0164 19.3676 19.0994C19.4831 19.1807 19.5678 19.2825 19.6215 19.4045C19.6752 19.5266 19.7021 19.669 19.7021 19.8318V21.6335H19.0624V19.9832C19.0624 19.892 19.0502 19.8139 19.0258 19.7488C19.0014 19.682 18.968 19.6259 18.9257 19.5803C18.885 19.5331 18.837 19.4949 18.7816 19.4656C18.7263 19.4363 18.6685 19.4143 18.6083 19.3997C18.5497 19.3834 18.4895 19.3728 18.4276 19.3679C18.3658 19.3614 18.3072 19.3582 18.2519 19.3582C18.1477 19.3582 18.0484 19.3655 17.954 19.3801C17.8596 19.3948 17.7701 19.4151 17.6854 19.4412C17.6008 19.4656 17.5211 19.4949 17.4462 19.5291C17.3713 19.5632 17.3013 19.599 17.2362 19.6365V21.6335H16.5966V19.6169ZM22.3601 20.5007C22.3601 20.5919 22.3723 20.6708 22.3967 20.7375C22.4211 20.8027 22.4545 20.8588 22.4968 20.906C22.5391 20.9516 22.5871 20.989 22.6408 21.0183C22.6962 21.0476 22.7539 21.0704 22.8142 21.0867C22.8744 21.1013 22.9354 21.1119 22.9973 21.1184C23.0591 21.1233 23.1185 21.1257 23.1755 21.1257C23.3822 21.1257 23.5702 21.0989 23.7395 21.0452C23.9087 20.9915 24.0593 20.9255 24.1911 20.8474V18.8503L24.821 18.8992V21.7556C24.821 21.8712 24.7966 21.9786 24.7478 22.0779C24.6989 22.1772 24.6281 22.2626 24.5354 22.3342C24.4426 22.4075 24.3286 22.4644 24.1936 22.5051C24.0585 22.5458 23.9047 22.5662 23.7321 22.5662V22.1414C23.7972 22.1414 23.8575 22.1348 23.9128 22.1218C23.9681 22.1088 24.0161 22.0885 24.0568 22.0608C24.0992 22.0347 24.1317 22.0014 24.1545 21.9607C24.1789 21.9216 24.1911 21.8761 24.1911 21.824V21.3113C24.1146 21.3585 24.0365 21.4016 23.9567 21.4407C23.8786 21.4797 23.7964 21.5139 23.7102 21.5432C23.6239 21.5709 23.5336 21.5929 23.4392 21.6091C23.3448 21.6254 23.2455 21.6335 23.1413 21.6335C22.889 21.6335 22.6734 21.6132 22.4943 21.5725C22.3153 21.5302 22.168 21.4683 22.0524 21.387C21.9385 21.304 21.8547 21.2014 21.801 21.0793C21.7473 20.9573 21.7204 20.8149 21.7204 20.6521V18.8992L22.3601 18.8503V20.5007Z" fill="#2D3049"/>
<path d="M1 3.72603L9.24657 2L20.5616 3.72603L27.4657 2" stroke="#2D3049" stroke-width="2"/>
<path d="M1 30L9.24657 28.274L20.5616 30L27.4657 28.274" stroke="#2D3049" stroke-width="2"/>
</svg>
