<svg width="122" height="35" viewBox="0 0 122 35" fill="none" xmlns="http://www.w3.org/2000/svg">
<g filter="url(#filter0_d_3_84)">
<path d="M12.8795 22.4772C11.7062 22.4875 10.6192 22.3063 9.6186 21.9337C8.63251 21.5463 7.76975 21.0038 7.0303 20.3062C6.30539 19.5938 5.73345 18.7628 5.31448 17.8131C4.89551 16.8634 4.68103 15.8165 4.67105 14.6726C4.66106 13.5286 4.85724 12.4782 5.25957 11.5213C5.6619 10.5644 6.22665 9.73081 6.95381 9.02044C7.68084 8.2954 8.53401 7.73793 9.51331 7.34804C10.5072 6.94335 11.5907 6.73588 12.764 6.72565C13.952 6.71528 15.0464 6.91107 16.0473 7.31302C17.0627 7.70017 17.9258 8.28666 18.6367 9.07249L17.2189 10.4709C16.6268 9.86006 15.9629 9.41117 15.227 9.12424C14.491 8.82265 13.7051 8.67551 12.8691 8.6828C12.0038 8.69035 11.1984 8.84405 10.453 9.1439C9.72227 9.44363 9.08788 9.85984 8.54984 10.3926C8.01181 10.9253 7.59199 11.5596 7.2904 12.2956C7.00335 13.0168 6.86354 13.8027 6.87096 14.6534C6.87839 15.504 7.03196 16.2947 7.33168 17.0254C7.64594 17.7414 8.0767 18.361 8.62395 18.8842C9.1712 19.4075 9.81276 19.8126 10.5486 20.0995C11.2992 20.3863 12.1071 20.5259 12.9724 20.5184C13.8083 20.5111 14.5917 20.3575 15.3224 20.0578C16.0531 19.7434 16.7089 19.2684 17.2901 18.6326L18.7321 20.0061C18.0351 20.8042 17.1823 21.413 16.174 21.8325C15.1803 22.2518 14.0821 22.4667 12.8795 22.4772ZM21.582 22.2253L21.4803 10.5657L23.5922 10.5473L23.694 22.2069L21.582 22.2253ZM22.5167 8.3126C22.106 8.31618 21.7602 8.1872 21.4792 7.92564C21.213 7.66395 21.0781 7.34245 21.0748 6.96113C21.0714 6.56515 21.2005 6.23401 21.4622 5.96771C21.7385 5.70129 22.082 5.56629 22.4927 5.5627C22.9033 5.55912 23.2418 5.68817 23.5081 5.94986C23.7889 6.19675 23.931 6.51085 23.9343 6.89217C23.9378 7.28816 23.8087 7.62663 23.5472 7.90759C23.2855 8.17388 22.942 8.30889 22.5167 8.3126ZM31.7313 22.2687C30.558 22.279 29.646 21.9716 28.9952 21.3466C28.3444 20.7215 28.0138 19.8224 28.0036 18.6491L27.9103 7.95752L30.0222 7.93909L30.1148 18.5427C30.1203 19.1733 30.2785 19.656 30.5894 19.9906C30.915 20.3251 31.3711 20.4898 31.9578 20.4847C32.6177 20.4789 33.1661 20.2908 33.6029 19.9203L34.2761 21.4325C33.9559 21.714 33.5691 21.9227 33.1156 22.0586C32.6767 22.1945 32.2153 22.2645 31.7313 22.2687ZM25.9678 12.2646L25.9526 10.5267L33.3884 10.4618L33.4035 12.1997L25.9678 12.2646ZM37.1649 26.4895C36.6076 26.4943 36.0641 26.4037 35.5345 26.2177C35.005 26.0463 34.548 25.7863 34.1636 25.4376L35.0518 23.8458C35.3475 24.1219 35.672 24.3317 36.0253 24.4753C36.3786 24.6189 36.7532 24.689 37.1492 24.6855C37.6625 24.6811 38.0866 24.5453 38.4217 24.2784C38.7567 24.0115 39.0679 23.5394 39.3553 22.8622L40.0673 21.2499L40.285 20.984L44.7685 10.3625L46.8364 10.3444L41.2945 23.2193C40.9644 24.0435 40.5887 24.6922 40.1675 25.1652C39.7609 25.6381 39.3091 25.9721 38.8122 26.1671C38.3153 26.3768 37.7662 26.4842 37.1649 26.4895ZM39.9017 22.4394L34.4729 10.4523L36.6728 10.4331L41.2952 20.7772L39.9017 22.4394ZM51.1262 13.8491L59.0679 13.7798L59.0844 15.6718L51.1427 15.7411L51.1262 13.8491ZM51.417 21.9649L49.2171 21.9841L49.0827 6.5847L59.9503 6.48986L59.967 8.40379L51.2993 8.47943L51.417 21.9649ZM67.4152 21.9573C66.4179 21.966 65.5363 21.7904 64.7705 21.4304C64.0193 21.0702 63.4278 20.5181 62.996 19.7738C62.5786 19.0147 62.365 18.0632 62.355 16.9193L62.2965 10.2095L64.4084 10.1911L64.4648 16.6589C64.4748 17.8028 64.7536 18.6584 65.3013 19.2257C65.8636 19.7928 66.6434 20.072 67.6407 20.0633C68.374 20.0569 69.0107 19.9046 69.5507 19.6066C70.0907 19.2939 70.5048 18.8502 70.7932 18.2757C71.0814 17.6865 71.2219 16.9812 71.2147 16.1599L71.1621 10.1322L73.274 10.1137L73.3758 21.7733L71.3739 21.7908L71.3464 18.6449L71.6837 19.478C71.3092 20.2586 70.7424 20.8649 69.9835 21.2969C69.2246 21.7288 68.3685 21.949 67.4152 21.9573ZM83.5194 9.91432C84.4727 9.906 85.3102 10.082 86.0321 10.4424C86.7686 10.8027 87.3454 11.355 87.7626 12.0994C88.1798 12.8438 88.3934 13.7879 88.4033 14.9319L88.4619 21.6416L86.35 21.6601L86.2935 15.1923C86.2837 14.063 85.9976 13.2148 85.4353 12.6477C84.8877 12.0805 84.1152 11.8012 83.1179 11.8099C82.3699 11.8164 81.7186 11.9688 81.1638 12.267C80.6091 12.5651 80.1802 13.0016 79.8772 13.5762C79.5889 14.1508 79.4484 14.8634 79.4558 15.714L79.5082 21.7198L77.3963 21.7382L77.2946 10.0786L79.3185 10.061L79.3459 13.2069L79.0087 12.3738C79.3833 11.6078 79.9648 11.0087 80.753 10.5765C81.5413 10.1443 82.4634 9.92353 83.5194 9.91432ZM98.4934 9.78364C99.4467 9.77532 100.284 9.95135 101.006 10.3117C101.743 10.672 102.319 11.2243 102.737 11.9687C103.154 12.7131 103.367 13.6573 103.377 14.8012L103.436 21.511L101.324 21.5294L101.268 15.0616C101.258 13.9323 100.972 13.0841 100.409 12.517C99.8617 11.9498 99.0892 11.6705 98.0919 11.6792C97.344 11.6857 96.6926 11.8381 96.1378 12.1363C95.5831 12.4345 95.1542 12.8709 94.8512 13.4456C94.5629 14.0201 94.4224 14.7327 94.4299 15.5833L94.4823 21.5891L92.3704 21.6075L92.2686 9.94797L94.2925 9.93031L94.32 13.0762L93.9827 12.2431C94.3574 11.4771 94.9388 10.878 95.7271 10.4458C96.5153 10.0136 97.4374 9.79286 98.4934 9.78364ZM107.674 25.8741C107.117 25.879 106.573 25.7884 106.044 25.6024C105.514 25.431 105.057 25.1709 104.673 24.8223L105.561 23.2305C105.857 23.5066 106.181 23.7164 106.534 23.86C106.888 24.0036 107.262 24.0737 107.658 24.0702C108.172 24.0657 108.596 23.93 108.931 23.6631C109.266 23.3962 109.577 22.9241 109.864 22.2469L110.576 20.6346L110.794 20.3687L115.277 9.74717L117.345 9.72913L111.804 22.604C111.473 23.4282 111.098 24.0769 110.676 24.5499C110.27 25.0228 109.818 25.3567 109.321 25.5518C108.824 25.7614 108.275 25.8689 107.674 25.8741ZM110.411 21.8241L104.982 9.83702L107.182 9.81782L111.804 20.1619L110.411 21.8241Z" fill="#FF7E36"/>
<path d="M9.6186 21.9337L9.25293 22.8644L9.26125 22.8677L9.26963 22.8708L9.6186 21.9337ZM7.0303 20.3062L6.32939 21.0194L6.33667 21.0266L6.34409 21.0336L7.0303 20.3062ZM5.31448 17.8131L6.2294 17.4095L6.2294 17.4095L5.31448 17.8131ZM5.25957 11.5213L6.1814 11.9089L6.1814 11.9089L5.25957 11.5213ZM6.95381 9.02044L7.65265 9.73579L7.65994 9.72851L6.95381 9.02044ZM9.51331 7.34804L9.88322 8.27714L9.89044 8.2742L9.51331 7.34804ZM16.0473 7.31302L15.6746 8.24098L15.6828 8.24427L15.691 8.2474L16.0473 7.31302ZM18.6367 9.07249L19.3389 9.78445L20.0208 9.11189L19.3783 8.40163L18.6367 9.07249ZM17.2189 10.4709L16.5008 11.1669L17.2028 11.8913L17.9211 11.1829L17.2189 10.4709ZM15.227 9.12424L14.8479 10.0496L14.8558 10.0528L14.8638 10.0559L15.227 9.12424ZM10.453 9.1439L10.0798 8.21613L10.0735 8.2187L10.453 9.1439ZM7.2904 12.2956L6.36503 11.9164L6.36129 11.9258L7.2904 12.2956ZM7.33168 17.0254L6.40648 17.4049L6.41111 17.4162L6.41601 17.4274L7.33168 17.0254ZM10.5486 20.0995L10.1853 21.0312L10.1917 21.0336L10.5486 20.0995ZM15.3224 20.0578L15.7019 20.983L15.7098 20.9798L15.7177 20.9764L15.3224 20.0578ZM17.2901 18.6326L17.9798 17.9085L17.2406 17.2045L16.552 17.9579L17.2901 18.6326ZM18.7321 20.0061L19.4853 20.6639L20.1153 19.9425L19.4218 19.282L18.7321 20.0061ZM16.174 21.8325L15.7899 20.9092L15.7852 20.9111L16.174 21.8325ZM12.8707 21.4773C11.8074 21.4866 10.843 21.3225 9.96757 20.9965L9.26963 22.8708C10.3954 23.29 11.6049 23.4884 12.8882 23.4772L12.8707 21.4773ZM9.98427 21.0029C9.11193 20.6602 8.35917 20.1851 7.71651 19.5788L6.34409 21.0336C7.18033 21.8225 8.1531 22.4323 9.25293 22.8644L9.98427 21.0029ZM7.73121 19.5929C7.09854 18.9712 6.59839 18.2459 6.2294 17.4095L4.39955 18.2167C4.8685 19.2797 5.51224 20.2164 6.32939 21.0194L7.73121 19.5929ZM6.2294 17.4095C5.87071 16.5964 5.67993 15.6857 5.67101 14.6638L3.67108 14.6813C3.68213 15.9473 3.9203 17.1303 4.39955 18.2167L6.2294 17.4095ZM5.67101 14.6638C5.66209 13.642 5.83696 12.7281 6.1814 11.9089L4.33774 11.1337C3.87752 12.2283 3.66004 13.4153 3.67108 14.6813L5.67101 14.6638ZM6.1814 11.9089C6.53312 11.0724 7.02296 10.3509 7.65261 9.73575L6.25501 8.30512C5.43033 9.11075 4.79068 10.0565 4.33774 11.1337L6.1814 11.9089ZM7.65994 9.72851C8.28845 9.10173 9.02637 8.61825 9.88321 8.27711L9.14342 6.41896C8.04165 6.85762 7.07324 7.48906 6.24768 8.31236L7.65994 9.72851ZM9.89044 8.2742C10.7568 7.92144 11.714 7.73485 12.7727 7.72561L12.7553 5.72568C11.4675 5.73692 10.2576 5.96526 9.13618 6.42187L9.89044 8.2742ZM12.7727 7.72561C13.8434 7.71626 14.8067 7.89243 15.6746 8.24098L16.4199 6.38505C15.2861 5.92971 14.0606 5.71429 12.7553 5.72568L12.7727 7.72561ZM15.691 8.2474C16.5629 8.57983 17.2929 9.07759 17.8951 9.74335L19.3783 8.40163C18.5588 7.49573 17.5625 6.82051 16.4035 6.37863L15.691 8.2474ZM17.9345 8.36052L16.5166 9.75895L17.9211 11.1829L19.3389 9.78445L17.9345 8.36052ZM17.937 9.77496C17.2528 9.06903 16.4701 8.5356 15.5903 8.19256L14.8638 10.0559C15.4557 10.2867 16.0009 10.6511 16.5008 11.1669L17.937 9.77496ZM15.6062 8.19892C14.7409 7.84435 13.8224 7.67445 12.8604 7.68284L12.8778 9.68276C13.5877 9.67657 14.2412 9.80096 14.8479 10.0496L15.6062 8.19892ZM12.8604 7.68284C11.8798 7.6914 10.9498 7.86619 10.0798 8.21615L10.8262 10.0717C11.4471 9.82192 12.1278 9.68931 12.8778 9.68276L12.8604 7.68284ZM10.0735 8.2187C9.22708 8.56589 8.48126 9.05323 7.84626 9.68195L9.25343 11.1032C9.69451 10.6665 10.2175 10.3214 10.8325 10.0691L10.0735 8.2187ZM7.84626 9.68195C7.20802 10.3139 6.71496 11.0626 6.36508 11.9165L8.21573 12.6748C8.46902 12.0567 8.81559 11.5367 9.25343 11.1032L7.84626 9.68195ZM6.36129 11.9258C6.02192 12.7785 5.86256 13.6944 5.871 14.6621L7.87092 14.6446C7.86452 13.9111 7.98479 13.2552 8.21951 12.6654L6.36129 11.9258ZM5.871 14.6621C5.87945 15.6301 6.05487 16.5477 6.40648 17.4049L8.25688 16.646C8.00905 16.0417 7.87732 15.3779 7.87092 14.6446L5.871 14.6621ZM6.41601 17.4274C6.78148 18.26 7.28721 18.9897 7.93288 19.607L9.31502 18.1615C8.86618 17.7323 8.5104 17.2228 8.24735 16.6235L6.41601 17.4274ZM7.93288 19.607C8.57875 20.2246 9.33297 20.6988 10.1854 21.0312L10.9119 19.1678C10.2926 18.9263 9.76366 18.5904 9.31502 18.1615L7.93288 19.607ZM10.1917 21.0336C11.0676 21.3683 12.0006 21.5269 12.9811 21.5183L12.9636 19.5184C12.2136 19.5249 11.5307 19.4042 10.9056 19.1654L10.1917 21.0336ZM12.9811 21.5183C13.9368 21.51 14.8467 21.3338 15.7019 20.983L14.943 19.1326C14.3367 19.3813 13.6799 19.5121 12.9636 19.5184L12.9811 21.5183ZM15.7177 20.9764C16.5891 20.6014 17.3594 20.0389 18.0282 19.3073L16.552 17.9579C16.0585 18.4978 15.517 18.8855 14.9272 19.1393L15.7177 20.9764ZM16.6004 19.3567L18.0424 20.7302L19.4218 19.282L17.9798 17.9085L16.6004 19.3567ZM17.9789 19.3483C17.3861 20.0271 16.661 20.5468 15.7899 20.9092L16.5581 22.7558C17.7037 22.2792 18.6841 21.5813 19.4853 20.6639L17.9789 19.3483ZM15.7852 20.9111C14.9249 21.2742 13.9578 21.4678 12.8707 21.4773L12.8882 23.4772C14.2064 23.4657 15.4356 23.2295 16.5628 22.7538L15.7852 20.9111ZM21.582 22.2253L20.5821 22.234L20.5908 23.234L21.5908 23.2252L21.582 22.2253ZM21.4803 10.5657L21.4716 9.56577L20.4716 9.57449L20.4803 10.5745L21.4803 10.5657ZM23.5922 10.5473L24.5922 10.5386L24.5834 9.53861L23.5835 9.54734L23.5922 10.5473ZM23.694 22.2069L23.7027 23.2068L24.7026 23.1981L24.6939 22.1981L23.694 22.2069ZM21.4792 7.92564L20.7783 8.63889L20.788 8.64836L20.7979 8.65756L21.4792 7.92564ZM21.4622 5.96771L20.7681 5.24779L20.7584 5.25717L20.7489 5.2668L21.4622 5.96771ZM23.5081 5.94986L22.8072 6.66311L22.827 6.68256L22.8478 6.70089L23.5081 5.94986ZM23.5472 7.90759L24.2604 8.6085L24.2699 8.59886L24.2791 8.58897L23.5472 7.90759ZM22.582 22.2166L22.4802 10.557L20.4803 10.5745L20.5821 22.234L22.582 22.2166ZM21.489 11.5657L23.6009 11.5473L23.5835 9.54734L21.4716 9.56577L21.489 11.5657ZM22.5922 10.556L22.694 22.2156L24.6939 22.1981L24.5922 10.5386L22.5922 10.556ZM23.6852 21.2069L21.5733 21.2253L21.5908 23.2252L23.7027 23.2068L23.6852 21.2069ZM22.5079 7.31264C22.3335 7.31416 22.2404 7.268 22.1606 7.19371L20.7979 8.65756C21.28 9.10639 21.8785 9.31821 22.5254 9.31256L22.5079 7.31264ZM22.1802 7.21239C22.1075 7.141 22.0758 7.07487 22.0748 6.9524L20.0749 6.96986C20.0804 7.61003 20.3184 8.1869 20.7783 8.63889L22.1802 7.21239ZM22.0748 6.9524C22.0735 6.80377 22.1118 6.73338 22.1754 6.66862L20.7489 5.2668C20.2892 5.73463 20.0692 6.32652 20.0749 6.96986L22.0748 6.9524ZM22.1562 6.68764C22.2347 6.61196 22.327 6.56419 22.5014 6.56267L22.4839 4.56274C21.837 4.56839 21.2423 4.79062 20.7681 5.24779L22.1562 6.68764ZM22.5014 6.56267C22.676 6.56114 22.7499 6.60678 22.8072 6.66311L24.209 5.23661C23.7337 4.76956 23.1307 4.5571 22.4839 4.56274L22.5014 6.56267ZM22.8478 6.70089C22.9102 6.75573 22.9335 6.79764 22.9344 6.9009L24.9343 6.88345C24.9285 6.22407 24.6676 5.63777 24.1683 5.19882L22.8478 6.70089ZM22.9344 6.9009C22.9357 7.05 22.8964 7.13899 22.8152 7.22621L24.2791 8.58897C24.721 8.11428 24.9399 7.52632 24.9343 6.88345L22.9344 6.9009ZM22.8339 7.20668C22.7845 7.25697 22.7082 7.31089 22.5079 7.31264L22.5254 9.31256C23.1758 9.30689 23.7865 9.0908 24.2604 8.6085L22.8339 7.20668ZM28.9952 21.3466L28.3025 22.0678L28.3025 22.0678L28.9952 21.3466ZM27.9103 7.95752L27.9016 6.95756L26.9016 6.96628L26.9103 7.96624L27.9103 7.95752ZM30.0222 7.93909L31.0222 7.93036L31.0135 6.9304L30.0135 6.93913L30.0222 7.93909ZM30.5894 19.9906L29.8568 20.6713L29.8647 20.6798L29.8728 20.6881L30.5894 19.9906ZM33.6029 19.9203L34.5165 19.5136L33.9737 18.2945L32.956 19.1577L33.6029 19.9203ZM34.2761 21.4325L34.9363 22.1836L35.4889 21.6979L35.1897 21.0258L34.2761 21.4325ZM33.1156 22.0586L32.8284 21.1007L32.8199 21.1033L33.1156 22.0586ZM25.9678 12.2646L24.9679 12.2734L24.9766 13.2733L25.9765 13.2646L25.9678 12.2646ZM25.9526 10.5267L25.9439 9.52674L24.944 9.53546L24.9527 10.5354L25.9526 10.5267ZM33.3884 10.4618L34.3883 10.4531L34.3796 9.45312L33.3796 9.46185L33.3884 10.4618ZM33.4035 12.1997L33.4123 13.1997L34.4122 13.191L34.4035 12.191L33.4035 12.1997ZM31.7226 21.2688C30.7291 21.2774 30.0987 21.0198 29.6878 20.6253L28.3025 22.0678C29.1933 22.9233 30.387 23.2805 31.7401 23.2687L31.7226 21.2688ZM29.6878 20.6253C29.2847 20.2382 29.0122 19.629 29.0036 18.6404L27.0036 18.6578C27.0155 20.0157 27.404 21.2049 28.3025 22.0678L29.6878 20.6253ZM29.0036 18.6404L28.9103 7.94879L26.9103 7.96624L27.0036 18.6578L29.0036 18.6404ZM27.919 8.95748L30.0309 8.93905L30.0135 6.93913L27.9016 6.95756L27.919 8.95748ZM29.0223 7.94781L29.1148 18.5514L31.1147 18.534L31.0222 7.93036L29.0223 7.94781ZM29.1148 18.5514C29.1216 19.336 29.3206 20.0942 29.8568 20.6713L31.322 19.3099C31.2363 19.2177 31.1189 19.0107 31.1147 18.534L29.1148 18.5514ZM29.8728 20.6881C30.4351 21.2658 31.1813 21.4915 31.9665 21.4846L31.949 19.4847C31.5609 19.4881 31.3949 19.3844 31.306 19.2931L29.8728 20.6881ZM31.9665 21.4846C32.8228 21.4772 33.6079 21.2274 34.2498 20.6829L32.956 19.1577C32.7244 19.3542 32.4127 19.4807 31.949 19.4847L31.9665 21.4846ZM32.6894 20.327L33.3626 21.8392L35.1897 21.0258L34.5165 19.5136L32.6894 20.327ZM33.6159 20.6814C33.4151 20.8579 33.1594 21.0015 32.8284 21.1008L33.4027 23.0165C33.9787 22.8438 34.4967 22.57 34.9363 22.1836L33.6159 20.6814ZM32.8199 21.1033C32.4789 21.2089 32.1145 21.2653 31.7226 21.2688L31.7401 23.2687C32.3161 23.2637 32.8746 23.18 33.4112 23.0139L32.8199 21.1033ZM26.9678 12.2559L26.9526 10.518L24.9527 10.5354L24.9679 12.2734L26.9678 12.2559ZM25.9614 11.5267L33.3971 11.4618L33.3796 9.46185L25.9439 9.52674L25.9614 11.5267ZM32.3884 10.4705L32.4036 12.2085L34.4035 12.191L34.3883 10.4531L32.3884 10.4705ZM33.3948 11.1998L25.9591 11.2647L25.9765 13.2646L33.4123 13.1997L33.3948 11.1998ZM35.5345 26.2177L35.8659 25.2742L35.8542 25.2701L35.8424 25.2663L35.5345 26.2177ZM34.1636 25.4376L33.2903 24.9504L32.9031 25.6444L33.4918 26.1783L34.1636 25.4376ZM35.0518 23.8458L35.7341 23.1148L34.8007 22.2434L34.1785 23.3586L35.0518 23.8458ZM36.0253 24.4753L36.4018 23.5489L36.4018 23.5489L36.0253 24.4753ZM38.4217 24.2784L37.7985 23.4963L37.7985 23.4963L38.4217 24.2784ZM39.3553 22.8622L38.4406 22.4583L38.4376 22.4649L38.4348 22.4715L39.3553 22.8622ZM40.0673 21.2499L39.2935 20.6165L39.2074 20.7216L39.1525 20.846L40.0673 21.2499ZM40.285 20.984L41.0588 21.6175L41.1502 21.5058L41.2063 21.3729L40.285 20.984ZM44.7685 10.3625L44.7597 9.36253L44.1027 9.36827L43.8472 9.97361L44.7685 10.3625ZM46.8364 10.3444L47.7549 10.7398L48.3613 9.3311L46.8277 9.34449L46.8364 10.3444ZM41.2945 23.2193L40.376 22.8239L40.371 22.8356L40.3662 22.8475L41.2945 23.2193ZM40.1675 25.1652L39.4206 24.5002L39.4148 24.5067L39.4092 24.5133L40.1675 25.1652ZM38.8122 26.1671L38.4469 25.2362L38.4351 25.2408L38.4233 25.2458L38.8122 26.1671ZM39.9017 22.4394L38.9907 22.852L39.6466 24.3002L40.668 23.0819L39.9017 22.4394ZM34.4729 10.4523L34.4641 9.45238L32.9283 9.46579L33.5619 10.8649L34.4729 10.4523ZM36.6728 10.4331L37.5858 10.0252L37.3187 9.42747L36.664 9.43318L36.6728 10.4331ZM41.2952 20.7772L42.0615 21.4197L42.4634 20.9403L42.2082 20.3692L41.2952 20.7772ZM37.1562 25.4895C36.7155 25.4933 36.2871 25.4222 35.8659 25.2742L35.203 27.1612C35.8411 27.3853 36.4997 27.4953 37.1736 27.4894L37.1562 25.4895ZM35.8424 25.2663C35.4378 25.1353 35.1074 24.9436 34.8355 24.6969L33.4918 26.1783C33.9886 26.629 34.5721 26.9573 35.2265 27.1691L35.8424 25.2663ZM35.0369 25.9249L35.925 24.333L34.1785 23.3586L33.2903 24.9504L35.0369 25.9249ZM34.3694 24.5768C34.7488 24.931 35.1757 25.2095 35.6487 25.4017L36.4018 23.5489C36.1683 23.454 35.9462 23.3128 35.7341 23.1148L34.3694 24.5768ZM35.6487 25.4017C36.129 25.5969 36.6351 25.6901 37.1579 25.6855L37.1404 23.6856C36.8713 23.6879 36.6281 23.6409 36.4018 23.5489L35.6487 25.4017ZM37.1579 25.6855C37.8488 25.6795 38.5023 25.4928 39.0448 25.0605L37.7985 23.4963C37.671 23.5979 37.4762 23.6826 37.1404 23.6856L37.1579 25.6855ZM39.0448 25.0605C39.5723 24.6402 39.964 23.9876 40.2758 23.2529L38.4348 22.4715C38.1718 23.0913 37.941 23.3828 37.7985 23.4963L39.0448 25.0605ZM40.2701 23.2662L40.9821 21.6539L39.1525 20.846L38.4406 22.4583L40.2701 23.2662ZM40.8411 21.8834L41.0588 21.6175L39.5112 20.3506L39.2935 20.6165L40.8411 21.8834ZM41.2063 21.3729L45.6897 10.7514L43.8472 9.97361L39.3637 20.5951L41.2063 21.3729ZM44.7772 11.3625L46.8451 11.3444L46.8277 9.34449L44.7597 9.36253L44.7772 11.3625ZM45.9179 9.94908L40.376 22.8239L42.213 23.6147L47.7549 10.7398L45.9179 9.94908ZM40.3662 22.8475C40.0632 23.6041 39.7407 24.1408 39.4206 24.5002L40.9143 25.8302C41.4367 25.2436 41.8656 24.483 42.2228 23.5911L40.3662 22.8475ZM39.4092 24.5133C39.091 24.8834 38.7684 25.11 38.4469 25.2362L39.1774 27.098C39.8499 26.8341 40.4308 26.3928 40.9258 25.8171L39.4092 24.5133ZM38.4233 25.2458C38.0599 25.3991 37.6419 25.4853 37.1562 25.4895L37.1736 27.4894C37.8905 27.4832 38.5707 27.3544 39.201 27.0884L38.4233 25.2458ZM40.8126 22.0269L35.3838 10.0398L33.5619 10.8649L38.9907 22.852L40.8126 22.0269ZM34.4816 11.4523L36.6815 11.4331L36.664 9.43318L34.4641 9.45238L34.4816 11.4523ZM35.7598 10.8411L40.3822 21.1852L42.2082 20.3692L37.5858 10.0252L35.7598 10.8411ZM40.5289 20.1347L39.1353 21.797L40.668 23.0819L42.0615 21.4197L40.5289 20.1347ZM51.1262 13.8491L51.1175 12.8492L50.1175 12.8579L50.1262 13.8579L51.1262 13.8491ZM59.0679 13.7798L60.0679 13.7711L60.0591 12.7712L59.0592 12.7799L59.0679 13.7798ZM59.0844 15.6718L59.0931 16.6717L60.0931 16.663L60.0844 15.663L59.0844 15.6718ZM51.1427 15.7411L50.1427 15.7498L50.1515 16.7498L51.1514 16.741L51.1427 15.7411ZM51.417 21.9649L51.4258 22.9649L52.4257 22.9562L52.417 21.9562L51.417 21.9649ZM49.2171 21.9841L48.2171 21.9928L48.2259 22.9928L49.2258 22.9841L49.2171 21.9841ZM49.0827 6.5847L49.074 5.58474L48.074 5.59347L48.0828 6.59343L49.0827 6.5847ZM59.9503 6.48986L60.9503 6.48114L60.9415 5.48117L59.9416 5.4899L59.9503 6.48986ZM59.967 8.40379L59.9757 9.40375L60.9757 9.39503L60.967 8.39506L59.967 8.40379ZM51.2993 8.47943L51.2906 7.47947L50.2907 7.4882L50.2994 8.48816L51.2993 8.47943ZM51.1349 14.8491L59.0766 14.7798L59.0592 12.7799L51.1175 12.8492L51.1349 14.8491ZM58.0679 13.7886L58.0844 15.6805L60.0844 15.663L60.0679 13.7711L58.0679 13.7886ZM59.0757 14.6718L51.134 14.7411L51.1514 16.741L59.0931 16.6717L59.0757 14.6718ZM52.1427 15.7323L52.1262 13.8404L50.1262 13.8579L50.1427 15.7498L52.1427 15.7323ZM51.4083 20.965L49.2084 20.9842L49.2258 22.9841L51.4258 22.9649L51.4083 20.965ZM50.2171 21.9754L50.0827 6.57598L48.0828 6.59343L48.2171 21.9928L50.2171 21.9754ZM49.0914 7.58466L59.959 7.48982L59.9416 5.4899L49.074 5.58474L49.0914 7.58466ZM58.9503 6.49859L58.967 8.41252L60.967 8.39506L60.9503 6.48114L58.9503 6.49859ZM59.9583 7.40383L51.2906 7.47947L51.3081 9.47939L59.9757 9.40375L59.9583 7.40383ZM50.2994 8.48816L50.4171 21.9736L52.417 21.9562L52.2993 8.47071L50.2994 8.48816ZM64.7705 21.4304L64.3382 22.3321L64.3451 22.3354L64.7705 21.4304ZM62.996 19.7738L62.1197 20.2556L62.1252 20.2657L62.131 20.2757L62.996 19.7738ZM62.2965 10.2095L62.2877 9.20957L61.2878 9.2183L61.2965 10.2183L62.2965 10.2095ZM64.4084 10.1911L65.4083 10.1824L65.3996 9.18241L64.3997 9.19114L64.4084 10.1911ZM65.3013 19.2257L64.5818 19.9203L64.5911 19.9297L65.3013 19.2257ZM69.5507 19.6066L70.0339 20.4821L70.043 20.4771L70.0519 20.4719L69.5507 19.6066ZM70.7932 18.2757L71.687 18.7242L71.6915 18.7151L70.7932 18.2757ZM71.1621 10.1322L71.1534 9.1322L70.1534 9.14093L70.1622 10.1409L71.1621 10.1322ZM73.274 10.1137L74.274 10.105L74.2653 9.10504L73.2653 9.11377L73.274 10.1137ZM73.3758 21.7733L73.3845 22.7732L74.3845 22.7645L74.3758 21.7646L73.3758 21.7733ZM71.3739 21.7908L70.3739 21.7995L70.3826 22.7994L71.3826 22.7907L71.3739 21.7908ZM71.3464 18.6449L72.2733 18.2696L70.3465 18.6536L71.3464 18.6449ZM71.6837 19.478L72.5853 19.9105L72.7764 19.5122L72.6106 19.1027L71.6837 19.478ZM69.9835 21.2969L70.4782 22.166L70.4782 22.166L69.9835 21.2969ZM67.4065 20.9573C66.5326 20.965 65.8038 20.8111 65.1959 20.5254L64.3451 22.3354C65.2688 22.7696 66.3032 22.9671 67.4239 22.9573L67.4065 20.9573ZM65.2028 20.5286C64.6389 20.2583 64.1955 19.8486 63.8609 19.2719L62.131 20.2757C62.6601 21.1876 63.3997 21.8822 64.3382 22.3321L65.2028 20.5286ZM63.8723 19.292C63.5561 18.717 63.364 17.9402 63.355 16.9105L61.3551 16.928C61.366 18.1863 61.6011 19.3124 62.1197 20.2556L63.8723 19.292ZM63.355 16.9105L63.2964 10.2008L61.2965 10.2183L61.3551 16.928L63.355 16.9105ZM62.3052 11.2095L64.4171 11.1911L64.3997 9.19114L62.2877 9.20957L62.3052 11.2095ZM63.4084 10.1998L63.4649 16.6676L65.4648 16.6501L65.4083 10.1824L63.4084 10.1998ZM63.4649 16.6676C63.4761 17.9529 63.79 19.1001 64.5818 19.9202L66.0207 18.5311C65.7172 18.2167 65.4735 17.6527 65.4648 16.6501L63.4649 16.6676ZM64.5911 19.9297C65.3882 20.7336 66.4536 21.0737 67.6494 21.0632L67.6319 19.0633C66.8331 19.0703 66.3389 18.8519 66.0114 18.5216L64.5911 19.9297ZM67.6494 21.0632C68.5174 21.0557 69.3233 20.8743 70.0339 20.4821L69.0676 18.7311C68.698 18.935 68.2305 19.0581 67.6319 19.0633L67.6494 21.0632ZM70.0519 20.4719C70.7659 20.0584 71.314 19.4674 71.6869 18.7242L69.8994 17.8272C69.6957 18.233 69.4155 18.5293 69.0496 18.7412L70.0519 20.4719ZM71.6915 18.7151C72.0629 17.9557 72.2229 17.0895 72.2147 16.1512L70.2148 16.1687C70.2209 16.8729 70.0999 17.4173 69.8949 17.8363L71.6915 18.7151ZM72.2147 16.1512L72.1621 10.1234L70.1622 10.1409L70.2148 16.1687L72.2147 16.1512ZM71.1709 11.1321L73.2828 11.1137L73.2653 9.11377L71.1534 9.1322L71.1709 11.1321ZM72.2741 10.1225L72.3758 21.782L74.3758 21.7646L74.274 10.105L72.2741 10.1225ZM73.3671 20.7733L71.3651 20.7908L71.3826 22.7907L73.3845 22.7732L73.3671 20.7733ZM72.3738 21.782L72.3464 18.6362L70.3465 18.6536L70.3739 21.7995L72.3738 21.782ZM70.4195 19.0201L70.7568 19.8532L72.6106 19.1027L72.2733 18.2696L70.4195 19.0201ZM70.7821 19.0454C70.4964 19.6408 70.0725 20.0956 69.4888 20.4278L70.4782 22.166C71.4124 21.6342 72.1219 20.8764 72.5853 19.9105L70.7821 19.0454ZM69.4888 20.4278C68.8914 20.7678 68.2053 20.9504 67.4065 20.9573L67.4239 22.9573C68.5316 22.9476 69.5577 22.6899 70.4782 22.166L69.4888 20.4278ZM86.0321 10.4424L85.5854 11.3371L85.5927 11.3407L86.0321 10.4424ZM88.4619 21.6416L88.4706 22.6416L89.4706 22.6329L89.4619 21.6329L88.4619 21.6416ZM86.35 21.6601L85.35 21.6688L85.3587 22.6688L86.3587 22.66L86.35 21.6601ZM85.4353 12.6477L84.7158 13.3423L84.7252 13.3518L85.4353 12.6477ZM81.1638 12.267L80.6904 11.3861L80.6904 11.3861L81.1638 12.267ZM79.8772 13.5762L78.9926 13.1098L78.9879 13.1187L78.9834 13.1277L79.8772 13.5762ZM79.5082 21.7198L79.517 22.7197L80.5169 22.711L80.5082 21.711L79.5082 21.7198ZM77.3963 21.7382L76.3964 21.7469L76.4051 22.7469L77.405 22.7382L77.3963 21.7382ZM77.2946 10.0786L77.2858 9.07868L76.2859 9.08741L76.2946 10.0874L77.2946 10.0786ZM79.3185 10.061L80.3185 10.0523L80.3097 9.05229L79.3098 9.06102L79.3185 10.061ZM79.3459 13.2069L78.419 13.5821L80.3459 13.1981L79.3459 13.2069ZM79.0087 12.3738L78.1104 11.9344L77.9142 12.3353L78.0817 12.749L79.0087 12.3738ZM80.753 10.5765L80.2722 9.69965L80.2722 9.69965L80.753 10.5765ZM83.5281 10.9143C84.352 10.9071 85.0284 11.059 85.5854 11.3371L86.4788 9.54772C85.592 9.10502 84.5933 8.90491 83.5106 8.91436L83.5281 10.9143ZM85.5927 11.3407C86.1389 11.6079 86.5681 12.0135 86.8903 12.5883L88.6349 11.6105C88.1227 10.6965 87.3983 9.99746 86.4715 9.54411L85.5927 11.3407ZM86.8903 12.5883C87.2019 13.1444 87.3944 13.9098 87.4034 14.9406L89.4033 14.9232C89.3923 13.666 89.1577 12.5432 88.6349 11.6105L86.8903 12.5883ZM87.4034 14.9406L87.4619 21.6504L89.4619 21.6329L89.4033 14.9232L87.4034 14.9406ZM88.4532 20.6417L86.3412 20.6601L86.3587 22.66L88.4706 22.6416L88.4532 20.6417ZM87.3499 21.6513L87.2935 15.1836L85.2936 15.201L85.35 21.6688L87.3499 21.6513ZM87.2935 15.1836C87.2823 13.9023 86.9558 12.7609 86.1454 11.9436L84.7252 13.3518C85.0394 13.6687 85.285 14.2237 85.2936 15.201L87.2935 15.1836ZM86.1547 11.9531C85.3689 11.1392 84.3037 10.7995 83.1092 10.8099L83.1266 12.8099C83.9267 12.8029 84.4064 13.0217 84.7159 13.3423L86.1547 11.9531ZM83.1092 10.8099C82.2293 10.8176 81.4126 10.9979 80.6904 11.3861L81.6373 13.1478C82.0245 12.9396 82.5106 12.8152 83.1266 12.8099L83.1092 10.8099ZM80.6904 11.3861C79.9546 11.7816 79.3853 12.3651 78.9926 13.1098L80.7618 14.0426C80.9751 13.638 81.2635 13.3487 81.6373 13.1478L80.6904 11.3861ZM78.9834 13.1277C78.6047 13.8824 78.4475 14.7627 78.4559 15.7227L80.4558 15.7053C80.4493 14.9641 80.573 14.4192 80.771 14.0248L78.9834 13.1277ZM78.4559 15.7227L78.5083 21.7285L80.5082 21.711L80.4558 15.7053L78.4559 15.7227ZM79.4995 20.7198L77.3876 20.7382L77.405 22.7382L79.517 22.7197L79.4995 20.7198ZM78.3963 21.7295L78.2945 10.0699L76.2946 10.0874L76.3964 21.7469L78.3963 21.7295ZM77.3033 11.0786L79.3272 11.0609L79.3098 9.06102L77.2858 9.07868L77.3033 11.0786ZM78.3185 10.0697L78.346 13.2156L80.3459 13.1981L80.3185 10.0523L78.3185 10.0697ZM80.2729 12.8316L79.9356 11.9985L78.0817 12.749L78.419 13.5821L80.2729 12.8316ZM79.907 12.8132C80.1858 12.243 80.6161 11.792 81.2338 11.4533L80.2722 9.69965C79.3134 10.2254 78.5808 10.9726 78.1104 11.9344L79.907 12.8132ZM81.2338 11.4533C81.8539 11.1133 82.6084 10.9223 83.5281 10.9143L83.5106 8.91436C82.3185 8.92476 81.2287 9.17522 80.2722 9.69965L81.2338 11.4533ZM101.006 10.3117L100.559 11.2065L100.567 11.21L101.006 10.3117ZM103.436 21.511L103.445 22.5109L104.445 22.5022L104.436 21.5022L103.436 21.511ZM101.324 21.5294L100.324 21.5381L100.333 22.5381L101.333 22.5293L101.324 21.5294ZM100.409 12.517L99.6898 13.2117L99.6992 13.2211L100.409 12.517ZM96.1378 12.1363L95.6644 11.2555L95.6644 11.2555L96.1378 12.1363ZM94.8512 13.4456L93.9667 12.9792L93.962 12.9881L93.9575 12.997L94.8512 13.4456ZM94.4823 21.5891L94.491 22.5891L95.491 22.5803L95.4822 21.5804L94.4823 21.5891ZM92.3704 21.6075L91.3704 21.6163L91.3791 22.6162L92.3791 22.6075L92.3704 21.6075ZM92.2686 9.94797L92.2599 8.94801L91.2599 8.95673L91.2686 9.95669L92.2686 9.94797ZM94.2925 9.93031L95.2925 9.92158L95.2838 8.92162L94.2838 8.93034L94.2925 9.93031ZM94.32 13.0762L93.3931 13.4515L95.3199 13.0675L94.32 13.0762ZM93.9827 12.2431L93.0844 11.8037L92.8883 12.2047L93.0558 12.6184L93.9827 12.2431ZM95.7271 10.4458L95.2463 9.56897L95.2463 9.56897L95.7271 10.4458ZM98.5021 10.7836C99.326 10.7764 100.002 10.9284 100.559 11.2064L101.453 9.41704C100.566 8.97434 99.5674 8.77423 98.4847 8.78368L98.5021 10.7836ZM100.567 11.21C101.113 11.4772 101.542 11.8828 101.864 12.4576L103.609 11.4798C103.097 10.5658 102.372 9.86678 101.446 9.41344L100.567 11.21ZM101.864 12.4576C102.176 13.0137 102.368 13.7792 102.377 14.8099L104.377 14.7925C104.366 13.5354 104.132 12.4125 103.609 11.4798L101.864 12.4576ZM102.377 14.8099L102.436 21.5197L104.436 21.5022L104.377 14.7925L102.377 14.8099ZM103.427 20.511L101.315 20.5294L101.333 22.5293L103.445 22.5109L103.427 20.511ZM102.324 21.5207L102.268 15.0529L100.268 15.0704L100.324 21.5381L102.324 21.5207ZM102.268 15.0529C102.256 13.7716 101.93 12.6302 101.119 11.8129L99.6992 13.2211C100.013 13.5381 100.259 14.0931 100.268 15.0704L102.268 15.0529ZM101.129 11.8225C100.343 11.0085 99.2777 10.6688 98.0832 10.6793L98.1007 12.6792C98.9007 12.6722 99.3805 12.8911 99.6899 13.2116L101.129 11.8225ZM98.0832 10.6793C97.2033 10.6869 96.3866 10.8673 95.6644 11.2555L96.6113 13.0171C96.9986 12.8089 97.4846 12.6846 98.1007 12.6792L98.0832 10.6793ZM95.6644 11.2555C94.9287 11.6509 94.3593 12.2344 93.9667 12.9792L95.7358 13.912C95.9491 13.5074 96.2375 13.218 96.6113 13.0171L95.6644 11.2555ZM93.9575 12.997C93.5787 13.7517 93.4215 14.632 93.4299 15.592L95.4298 15.5746C95.4234 14.8334 95.5471 14.2885 95.745 13.8941L93.9575 12.997ZM93.4299 15.592L93.4823 21.5978L95.4822 21.5804L95.4298 15.5746L93.4299 15.592ZM94.4735 20.5891L92.3616 20.6076L92.3791 22.6075L94.491 22.5891L94.4735 20.5891ZM93.3703 21.5988L93.2686 9.93924L91.2686 9.95669L91.3704 21.6163L93.3703 21.5988ZM92.2773 10.9479L94.3013 10.9303L94.2838 8.93034L92.2599 8.94801L92.2773 10.9479ZM93.2926 9.93903L93.32 13.0849L95.3199 13.0675L95.2925 9.92158L93.2926 9.93903ZM95.2469 12.7009L94.9096 11.8678L93.0558 12.6184L93.3931 13.4515L95.2469 12.7009ZM94.881 12.6825C95.1599 12.1123 95.5902 11.6613 96.2079 11.3226L95.2463 9.56897C94.2875 10.0947 93.5548 10.8419 93.0844 11.8037L94.881 12.6825ZM96.2079 11.3226C96.828 10.9826 97.5824 10.7916 98.5021 10.7836L98.4847 8.78368C97.2925 8.79408 96.2027 9.04454 95.2463 9.56897L96.2079 11.3226ZM106.044 25.6024L106.375 24.6589L106.363 24.6548L106.351 24.651L106.044 25.6024ZM104.673 24.8223L103.799 24.3351L103.412 25.0291L104.001 25.563L104.673 24.8223ZM105.561 23.2305L106.243 22.4995L105.31 21.6281L104.688 22.7432L105.561 23.2305ZM106.534 23.86L106.911 22.9336L106.911 22.9336L106.534 23.86ZM108.931 23.6631L108.308 22.881L108.308 22.881L108.931 23.6631ZM109.864 22.2469L108.95 21.8429L108.947 21.8495L108.944 21.8562L109.864 22.2469ZM110.576 20.6346L109.803 20.0012L109.716 20.1063L109.662 20.2307L110.576 20.6346ZM110.794 20.3687L111.568 21.0022L111.659 20.8905L111.715 20.7576L110.794 20.3687ZM115.277 9.74717L115.269 8.74721L114.612 8.75294L114.356 9.35829L115.277 9.74717ZM117.345 9.72913L118.264 10.1245L118.87 8.71578L117.337 8.72916L117.345 9.72913ZM111.804 22.604L110.885 22.2086L110.88 22.2203L110.875 22.2321L111.804 22.604ZM110.676 24.5499L109.93 23.8849L109.924 23.8914L109.918 23.898L110.676 24.5499ZM109.321 25.5518L108.956 24.6209L108.944 24.6255L108.932 24.6304L109.321 25.5518ZM110.411 21.8241L109.5 22.2367L110.156 23.6849L111.177 22.4666L110.411 21.8241ZM104.982 9.83702L104.973 8.83706L103.437 8.85046L104.071 10.2496L104.982 9.83702ZM107.182 9.81782L108.095 9.40984L107.828 8.81215L107.173 8.81786L107.182 9.81782ZM111.804 20.1619L112.571 20.8043L112.972 20.325L112.717 19.7539L111.804 20.1619ZM107.665 24.8742C107.225 24.878 106.796 24.8068 106.375 24.6589L105.712 26.5458C106.35 26.77 107.009 26.88 107.683 26.8741L107.665 24.8742ZM106.351 24.651C105.947 24.52 105.616 24.3283 105.344 24.0816L104.001 25.563C104.498 26.0136 105.081 26.3419 105.736 26.5538L106.351 24.651ZM105.546 25.3095L106.434 23.7177L104.688 22.7432L103.799 24.3351L105.546 25.3095ZM104.878 23.9615C105.258 24.3157 105.685 24.5941 106.158 24.7864L106.911 22.9336C106.677 22.8387 106.455 22.6975 106.243 22.4995L104.878 23.9615ZM106.158 24.7864C106.638 24.9816 107.144 25.0747 107.667 25.0702L107.649 23.0702C107.38 23.0726 107.137 23.0256 106.911 22.9336L106.158 24.7864ZM107.667 25.0702C108.358 25.0641 109.011 24.8774 109.554 24.4452L108.308 22.881C108.18 22.9826 107.985 23.0673 107.649 23.0702L107.667 25.0702ZM109.554 24.4452C110.081 24.0249 110.473 23.3722 110.785 22.6376L108.944 21.8562C108.681 22.4759 108.45 22.7675 108.308 22.881L109.554 24.4452ZM110.779 22.6508L111.491 21.0386L109.662 20.2307L108.95 21.8429L110.779 22.6508ZM111.35 21.2681L111.568 21.0022L110.02 19.7352L109.803 20.0012L111.35 21.2681ZM111.715 20.7576L116.199 10.1361L114.356 9.35829L109.873 19.9798L111.715 20.7576ZM115.286 10.7471L117.354 10.7291L117.337 8.72916L115.269 8.74721L115.286 10.7471ZM116.427 9.33376L110.885 22.2086L112.722 22.9993L118.264 10.1245L116.427 9.33376ZM110.875 22.2321C110.572 22.9887 110.25 23.5254 109.93 23.8849L111.423 25.2149C111.946 24.6283 112.375 23.8677 112.732 22.9758L110.875 22.2321ZM109.918 23.898C109.6 24.2681 109.277 24.4947 108.956 24.6209L109.686 26.4827C110.359 26.2188 110.94 25.7775 111.435 25.2018L109.918 23.898ZM108.932 24.6304C108.569 24.7838 108.151 24.8699 107.665 24.8742L107.683 26.8741C108.4 26.8678 109.08 26.7391 109.71 26.4731L108.932 24.6304ZM111.322 21.4116L105.893 9.42447L104.071 10.2496L109.5 22.2367L111.322 21.4116ZM104.991 10.837L107.191 10.8178L107.173 8.81786L104.973 8.83706L104.991 10.837ZM106.269 10.2258L110.891 20.5699L112.717 19.7539L108.095 9.40984L106.269 10.2258ZM111.038 19.5194L109.644 21.1816L111.177 22.4666L112.571 20.8043L111.038 19.5194Z" fill="white"/>
</g>
<defs>
<filter id="filter0_d_3_84" x="0.593018" y="4.73532" width="120.893" height="30.0368" filterUnits="userSpaceOnUse" color-interpolation-filters="sRGB">
<feFlood flood-opacity="0" result="BackgroundImageFix"/>
<feColorMatrix in="SourceAlpha" type="matrix" values="0 0 0 0 0 0 0 0 0 0 0 0 0 0 0 0 0 0 127 0" result="hardAlpha"/>
<feOffset dy="4"/>
<feGaussianBlur stdDeviation="2"/>
<feComposite in2="hardAlpha" operator="out"/>
<feColorMatrix type="matrix" values="0 0 0 0 0 0 0 0 0 0 0 0 0 0 0 0 0 0 0.25 0"/>
<feBlend mode="normal" in2="BackgroundImageFix" result="effect1_dropShadow_3_84"/>
<feBlend mode="normal" in="SourceGraphic" in2="effect1_dropShadow_3_84" result="shape"/>
</filter>
</defs>
</svg>
