<svg width="131" height="133" viewBox="0 0 131 133" fill="none" xmlns="http://www.w3.org/2000/svg">
<path d="M20.3809 37.5107C22.1013 37.5107 23.7305 37.6646 25.2686 37.9722C26.8067 38.2684 28.1454 38.6899 29.2847 39.2368C30.4355 39.7837 31.3469 40.4388 32.0191 41.2021C32.6913 41.9541 33.0274 42.7858 33.0274 43.6973V46.7051H28.5157V45.0303C28.5157 44.5404 28.3277 44.0732 27.9517 43.6289C27.5758 43.1732 27.0346 42.7801 26.3282 42.4497C25.6332 42.1079 24.7844 41.8402 23.7818 41.6465C22.7792 41.4414 21.6456 41.3389 20.3809 41.3389C19.1619 41.3389 18.051 41.4357 17.0484 41.6294C16.0458 41.8117 15.1856 42.068 14.4678 42.3984C13.7501 42.7288 13.1918 43.1219 12.793 43.5776C12.4057 44.022 12.212 44.5062 12.212 45.0303V57.0957C12.212 57.597 12.4057 58.0698 12.793 58.5142C13.1918 58.9585 13.7501 59.3459 14.4678 59.6763C15.1856 59.9953 16.0458 60.2516 17.0484 60.4453C18.051 60.6276 19.1619 60.7188 20.3809 60.7188C21.6456 60.7188 22.7792 60.6219 23.7818 60.4282C24.7844 60.2231 25.6332 59.9554 26.3282 59.625C27.0346 59.2946 27.5758 58.9129 27.9517 58.48C28.3277 58.0356 28.5157 57.5742 28.5157 57.0957V55.3867H33.0274V58.3945C33.0274 58.9984 32.8736 59.5737 32.566 60.1206C32.2584 60.6561 31.8254 61.1517 31.2672 61.6074C30.7203 62.0632 30.0595 62.4733 29.2847 62.8379C28.5214 63.1911 27.6669 63.4987 26.7213 63.7607C25.787 64.0114 24.7844 64.2051 23.7135 64.3418C22.6425 64.4785 21.5317 64.5469 20.3809 64.5469C19.2302 64.5469 18.1194 64.4785 17.0484 64.3418C15.9775 64.2051 14.9692 64.0114 14.0235 63.7607C13.0893 63.4987 12.2348 63.1911 11.46 62.8379C10.6967 62.4733 10.0359 62.0632 9.47762 61.6074C8.93074 61.1517 8.50349 60.6561 8.19588 60.1206C7.88826 59.5737 7.73445 58.9984 7.73445 58.3945V43.6973C7.73445 43.0934 7.88826 42.5181 8.19588 41.9712C8.50349 41.4243 8.93074 40.923 9.47762 40.4673C10.0359 40.0116 10.6967 39.6014 11.46 39.2368C12.2348 38.8722 13.0893 38.5646 14.0235 38.314C14.9692 38.0519 15.9775 37.8525 17.0484 37.7158C18.1194 37.5791 19.2302 37.5107 20.3809 37.5107ZM50.902 37.5449C52.0414 37.5449 53.1465 37.6133 54.2175 37.75C55.2884 37.8867 56.291 38.0861 57.2253 38.3481C58.1595 38.5988 59.014 38.9064 59.7887 39.271C60.5635 39.6242 61.2243 40.0286 61.7712 40.4844C62.318 40.9401 62.7453 41.4414 63.0529 41.9883C63.3605 42.5238 63.5143 43.0934 63.5143 43.6973V58.3604C63.5143 58.9642 63.3605 59.5396 63.0529 60.0864C62.7453 60.6219 62.318 61.1175 61.7712 61.5732C61.2243 62.029 60.5635 62.4391 59.7887 62.8037C59.014 63.1569 58.1595 63.4645 57.2253 63.7266C56.291 63.9772 55.2884 64.1709 54.2175 64.3076C53.1465 64.4443 52.0414 64.5127 50.902 64.5127C49.7627 64.5127 48.6576 64.4443 47.5866 64.3076C46.527 64.1709 45.5301 63.9772 44.5959 63.7266C43.673 63.4645 42.8242 63.1569 42.0495 62.8037C41.2748 62.4391 40.6082 62.029 40.05 61.5732C39.5031 61.1175 39.0759 60.6219 38.7682 60.0864C38.472 59.5396 38.3239 58.9642 38.3239 58.3604V43.6973C38.3239 43.0934 38.472 42.5238 38.7682 41.9883C39.0759 41.4414 39.5031 40.9401 40.05 40.4844C40.6082 40.0286 41.2748 39.6242 42.0495 39.271C42.8242 38.9064 43.673 38.5988 44.5959 38.3481C45.5301 38.0861 46.527 37.8867 47.5866 37.75C48.6576 37.6133 49.7627 37.5449 50.902 37.5449ZM59.0368 44.9961C59.0368 44.5062 58.8488 44.0448 58.4728 43.6118C58.0969 43.1675 57.5557 42.7801 56.8493 42.4497C56.1543 42.1079 55.3055 41.8402 54.3029 41.6465C53.3003 41.4414 52.1667 41.3389 50.902 41.3389C49.683 41.3389 48.5778 41.4357 47.5866 41.6294C46.5954 41.8117 45.7409 42.068 45.0231 42.3984C44.3167 42.7288 43.7699 43.1162 43.3825 43.5605C42.9951 44.0049 42.8014 44.4834 42.8014 44.9961V57.0615C42.8014 57.5628 42.9951 58.0356 43.3825 58.48C43.7699 58.9243 44.3167 59.3117 45.0231 59.6421C45.7409 59.9725 46.5954 60.2345 47.5866 60.4282C48.5778 60.6219 49.683 60.7188 50.902 60.7188C52.1667 60.7188 53.3003 60.6219 54.3029 60.4282C55.3055 60.2231 56.1543 59.9497 56.8493 59.6079C57.5557 59.2661 58.0969 58.8787 58.4728 58.4458C58.8488 58.0015 59.0368 57.54 59.0368 57.0615V44.9961ZM80.2268 37.9551C81.9814 37.9551 83.6334 38.1089 85.1829 38.4165C86.7324 38.7241 88.0882 39.1514 89.2503 39.6982C90.4124 40.2451 91.3295 40.9059 92.0017 41.6807C92.6739 42.444 93.01 43.2871 93.01 44.21V57.8135C93.01 58.7363 92.6739 59.5851 92.0017 60.3599C91.3295 61.1232 90.4124 61.7783 89.2503 62.3252C88.0882 62.8721 86.7324 63.2993 85.1829 63.6069C83.6334 63.9146 81.9814 64.0684 80.2268 64.0684C79.247 64.0684 78.2444 64.0342 77.219 63.9658C76.1936 63.8861 75.1967 63.7892 74.2283 63.6753C73.2713 63.55 72.3712 63.4076 71.5281 63.248C70.685 63.0885 69.9615 62.9176 69.3577 62.7354V39.2881C69.9615 39.1058 70.685 38.9349 71.5281 38.7754C72.3712 38.6159 73.2713 38.4792 74.2283 38.3652C75.1967 38.2399 76.1936 38.1431 77.219 38.0747C78.2444 37.995 79.247 37.9551 80.2268 37.9551ZM80.2952 41.8174C79.2584 41.8174 78.3583 41.8516 77.595 41.9199C76.8317 41.9769 76.1765 42.0566 75.6297 42.1592C75.0828 42.2503 74.6271 42.3529 74.2625 42.4668C73.9093 42.5693 73.6188 42.6605 73.3909 42.7402V59.2832C73.6188 59.3743 73.9093 59.4712 74.2625 59.5737C74.6271 59.6763 75.0828 59.7788 75.6297 59.8813C76.1765 59.9725 76.8317 60.0522 77.595 60.1206C78.3583 60.1776 79.2584 60.2061 80.2952 60.2061C81.5712 60.2061 82.7163 60.1035 83.7303 59.8984C84.7556 59.6934 85.6158 59.4199 86.3108 59.0781C87.0172 58.7363 87.5584 58.3433 87.9344 57.8989C88.3103 57.4432 88.4983 56.9704 88.4983 56.4805V45.543C88.4983 45.0531 88.3103 44.5859 87.9344 44.1416C87.5584 43.6859 87.0172 43.2871 86.3108 42.9453C85.6158 42.6035 84.7556 42.3301 83.7303 42.125C82.7163 41.9199 81.5712 41.8174 80.2952 41.8174ZM110.748 37.9893C112.502 37.9893 114.36 38.0519 116.319 38.1772C118.29 38.3026 120.341 38.5475 122.472 38.9121V43.2529C121.515 42.9795 120.546 42.7573 119.566 42.5864C118.586 42.4041 117.601 42.2617 116.61 42.1592C115.63 42.0566 114.65 41.9826 113.67 41.937C112.69 41.8914 111.716 41.863 110.748 41.8516C110.281 41.8516 109.762 41.863 109.193 41.8857C108.634 41.8971 108.036 41.9199 107.398 41.9541C106.772 41.9883 106.111 42.0396 105.416 42.1079C104.721 42.1763 104.015 42.2617 103.297 42.3643V48.585H118.233V52.7891H103.297V59.6592C104.402 59.8187 105.553 59.9383 106.749 60.0181C107.945 60.0978 109.278 60.1377 110.748 60.1377C112.73 60.1377 114.701 60.0409 116.661 59.8472C118.621 59.6535 120.557 59.2832 122.472 58.7363V63.0771C120.341 63.4417 118.296 63.6867 116.336 63.812C114.377 63.9373 112.537 64 110.816 64C109.062 64 107.199 63.9373 105.228 63.812C103.268 63.6867 101.212 63.4417 99.0585 63.0771V38.9121C101.212 38.5475 103.268 38.3026 105.228 38.1772C107.188 38.0519 109.028 37.9893 110.748 37.9893Z" fill="white"/>
<path d="M20.0995 81.603C19.7926 81.603 19.5118 81.6329 19.2572 81.6928C19.0027 81.7527 18.7781 81.8463 18.5834 81.9736C18.3962 82.0934 18.2502 82.2468 18.1454 82.434C18.0406 82.6137 17.9882 82.8233 17.9882 83.0629V83.7592H20.8857V85.6459H17.9882V96.7192H15.0683V85.6459H13.2489V83.7592H15.0683V83.3774C15.0683 82.8458 15.1806 82.3517 15.4052 81.895C15.6298 81.4383 15.9555 81.0452 16.3822 80.7158C16.8165 80.3788 17.3443 80.1168 17.9657 79.9296C18.5872 79.7425 19.2984 79.6489 20.0995 79.6489V81.603ZM32.5959 92.6537C32.5959 92.9981 32.7194 93.2864 32.9665 93.5185C33.2211 93.7506 33.558 93.9415 33.9772 94.0912C34.404 94.2335 34.8944 94.3383 35.4484 94.4057C36.0025 94.4656 36.579 94.4955 37.1779 94.4955C37.8068 94.4955 38.3983 94.4619 38.9523 94.3945C39.5064 94.3196 39.9893 94.211 40.4011 94.0688C40.8129 93.919 41.1385 93.7281 41.3781 93.496C41.6177 93.2639 41.7375 92.9832 41.7375 92.6537V83.9164L44.7248 84.1411V93.3725C44.7248 93.7768 44.6237 94.1474 44.4216 94.4843C44.2269 94.8212 43.9536 95.1245 43.6018 95.394C43.2499 95.656 42.8343 95.8844 42.3552 96.079C41.876 96.2737 41.3557 96.4347 40.7941 96.562C40.2401 96.6892 39.6524 96.7828 39.031 96.8427C38.417 96.9101 37.7993 96.9438 37.1779 96.9438C36.549 96.9438 35.9276 96.9101 35.3137 96.8427C34.6997 96.7828 34.112 96.6892 33.5505 96.562C32.9964 96.4347 32.4798 96.2737 32.0007 96.079C31.5215 95.8844 31.106 95.656 30.7541 95.394C30.4022 95.1245 30.1252 94.825 29.923 94.4955C29.7284 94.1586 29.6311 93.7843 29.6311 93.3725V84.1411L32.5959 83.9164V92.6537ZM54.6831 87.4428C54.6531 87.2032 54.582 87.0011 54.4697 86.8364C54.3649 86.6717 54.2488 86.5369 54.1216 86.4321C53.9793 86.3048 53.8221 86.2 53.6499 86.1176L54.9077 83.9164C55.1847 84.0138 55.4617 84.1448 55.7387 84.3095C55.9708 84.4518 56.2142 84.6352 56.4687 84.8598C56.7308 85.0769 56.9591 85.3465 57.1538 85.6684C57.5281 85.4288 57.91 85.2042 58.2993 84.9946C58.6961 84.7774 59.1079 84.5903 59.5346 84.433C59.9689 84.2758 60.4219 84.1523 60.8935 84.0624C61.3727 83.9651 61.8856 83.9164 62.4321 83.9164C63.5851 83.9164 64.5734 84.0138 65.3969 84.2084C66.228 84.3956 66.9056 84.6801 67.4297 85.062C67.9612 85.4363 68.3506 85.9042 68.5976 86.4658C68.8447 87.0273 68.9682 87.6824 68.9682 88.4311V96.7192H66.0259V89.1274C66.0259 88.7081 65.9697 88.3487 65.8574 88.0493C65.7451 87.7423 65.5916 87.484 65.3969 87.2744C65.2098 87.0572 64.9889 86.8813 64.7344 86.7465C64.4798 86.6118 64.214 86.5107 63.937 86.4433C63.6675 86.3684 63.3904 86.3198 63.1059 86.2973C62.8214 86.2674 62.5519 86.2524 62.2973 86.2524C61.8182 86.2524 61.3615 86.2861 60.9272 86.3535C60.493 86.4208 60.0812 86.5144 59.6919 86.6342C59.3025 86.7465 58.9357 86.8813 58.5913 87.0385C58.2469 87.1957 57.9249 87.3605 57.6255 87.5327V96.7192H54.6831V87.4428ZM78.9714 87.4428C78.9415 87.2032 78.8704 87.0011 78.7581 86.8364C78.6532 86.6717 78.5372 86.5369 78.4099 86.4321C78.2677 86.3048 78.1104 86.2 77.9382 86.1176L79.196 83.9164C79.4731 84.0138 79.7501 84.1448 80.0271 84.3095C80.2592 84.4518 80.5025 84.6352 80.7571 84.8598C81.0191 85.0769 81.2475 85.3465 81.4421 85.6684C81.8165 85.4288 82.1983 85.2042 82.5876 84.9946C82.9845 84.7774 83.3962 84.5903 83.823 84.433C84.2572 84.2758 84.7102 84.1523 85.1819 84.0624C85.6611 83.9651 86.1739 83.9164 86.7205 83.9164C87.8735 83.9164 88.8617 84.0138 89.6853 84.2084C90.5164 84.3956 91.1939 84.6801 91.718 85.062C92.2496 85.4363 92.6389 85.9042 92.886 86.4658C93.1331 87.0273 93.2566 87.6824 93.2566 88.4311V96.7192H90.3142V89.1274C90.3142 88.7081 90.2581 88.3487 90.1458 88.0493C90.0334 87.7423 89.88 87.484 89.6853 87.2744C89.4981 87.0572 89.2773 86.8813 89.0227 86.7465C88.7681 86.6118 88.5024 86.5107 88.2253 86.4433C87.9558 86.3684 87.6788 86.3198 87.3943 86.2973C87.1098 86.2674 86.8403 86.2524 86.5857 86.2524C86.1065 86.2524 85.6498 86.2861 85.2156 86.3535C84.7813 86.4208 84.3695 86.5144 83.9802 86.6342C83.5909 86.7465 83.224 86.8813 82.8796 87.0385C82.5352 87.1957 82.2133 87.3605 81.9138 87.5327V96.7192H78.9714V87.4428ZM105.483 91.5082C105.483 91.9275 105.54 92.2906 105.652 92.5976C105.764 92.8971 105.918 93.1554 106.112 93.3725C106.307 93.5821 106.528 93.7543 106.775 93.8891C107.029 94.0239 107.295 94.1287 107.572 94.2036C107.849 94.2709 108.13 94.3196 108.415 94.3495C108.699 94.372 108.972 94.3832 109.234 94.3832C110.185 94.3832 111.05 94.2597 111.829 94.0126C112.607 93.7656 113.3 93.4623 113.906 93.103V83.9164L116.804 84.1411V97.2807C116.804 97.8123 116.691 98.3064 116.467 98.7631C116.242 99.2198 115.917 99.6129 115.49 99.9423C115.063 100.279 114.539 100.541 113.918 100.728C113.296 100.916 112.589 101.009 111.795 101.009V99.0551C112.094 99.0551 112.371 99.0252 112.626 98.9653C112.881 98.9054 113.101 98.8118 113.289 98.6845C113.483 98.5647 113.633 98.4112 113.738 98.2241C113.85 98.0444 113.906 97.8347 113.906 97.5952V95.2368C113.554 95.4539 113.195 95.6523 112.828 95.832C112.469 96.0117 112.091 96.1689 111.694 96.3036C111.297 96.4309 110.882 96.532 110.447 96.6069C110.013 96.6817 109.556 96.7192 109.077 96.7192C107.917 96.7192 106.925 96.6256 106.101 96.4384C105.278 96.2438 104.6 95.9592 104.068 95.5849C103.544 95.2031 103.159 94.7314 102.912 94.1699C102.665 93.6083 102.541 92.9532 102.541 92.2045V84.1411L105.483 83.9164V91.5082Z" fill="white"/>
<path d="M3 10.8288L40.4041 3L91.726 10.8288L123.041 3" stroke="white" stroke-width="4"/>
<path d="M3 130L40.4041 122.171L91.726 130L123.041 122.171" stroke="white" stroke-width="4"/>
</svg>
